<?xml version="1.0" encoding="utf-8"?>
<!-- Generator: Adobe Illustrator 24.1.1, SVG Export Plug-In . SVG Version: 6.00 Build 0)  -->
<svg version="1.1" id="Layer_1" xmlns="http://www.w3.org/2000/svg" xmlns:xlink="http://www.w3.org/1999/xlink" x="0px" y="0px"
	 viewBox="0 0 512 512" style="enable-background:new 0 0 512 512;" xml:space="preserve">
<style type="text/css">
	.st0{fill:#AB47BC;}
</style>
<path class="st0" d="M145.9,256.1c-61.3,0-111,49.7-111,111s49.7,111,111,111s111-49.7,111-111C256.8,305.8,207.2,256.2,145.9,256.1
	z M145.9,461C94,461,52,419,52,367.1s42-93.9,93.9-93.9s93.9,42,93.9,93.9C239.7,418.9,197.7,460.9,145.9,461z"/>
<path class="st0" d="M145.9,324.4c-23.6,0-42.7,19.1-42.7,42.7s19.1,42.7,42.7,42.7s42.7-19.1,42.7-42.7
	C188.6,343.5,169.5,324.4,145.9,324.4z M145.9,392.7c-14.1,0-25.6-11.5-25.6-25.6s11.5-25.6,25.6-25.6s25.6,11.5,25.6,25.6
	S160,392.7,145.9,392.7z"/>
<path class="st0" d="M145.9,222c-16.8,0.9-33.4,3.6-49.6,7.9l-48.1-32c-3.9-2.6-9.2-1.6-11.8,2.4c-0.9,1.4-1.4,3.1-1.4,4.7v68.9
	c-51.5,61.4-43.4,152.8,17.9,204.3s152.8,43.4,204.3-17.9s43.4-152.8-17.9-204.3C213.1,233.9,180,221.9,145.9,222z M145.9,495.2
	c-70.6,0.1-128-57.1-128.1-127.7c0-31.2,11.4-61.4,32-84.8C51.2,281,52,279,52,277v-56.1l37.9,25.3c2,1.3,4.6,1.8,6.9,1.2
	c16-4.3,32.5-7.1,49-8.3c70.7,0,128.1,57.3,128.1,128.1C274,437.8,216.6,495.2,145.9,495.2z"/>
<path class="st0" d="M472.3,107.8c0-0.1-0.1-0.2-0.1-0.3c-4.9-13.4-12.3-25.8-21.8-36.4c-0.1-0.2-0.3-0.3-0.4-0.5
	c-41-45.4-111.1-49-156.5-8s-49,111.1-8,156.5c0.1,0.2,0.3,0.3,0.4,0.5c40.8,45.3,110.7,49,156,8.1c2.8-2.6,5.6-5.3,8.1-8.1
	c0.2-0.1,0.3-0.3,0.4-0.5C477.7,189,486.2,146.1,472.3,107.8z M458.1,170.7H277.6c-1.6-5.6-2.7-11.3-3.2-17.1h187
	C460.8,159.4,459.7,165.2,458.1,170.7z M440.3,204.9H295.5c-4.3-5.3-8.1-11-11.2-17.1h167.1C448.3,193.9,444.6,199.6,440.3,204.9z
	 M376.4,85.4h63.8c4.3,5.3,8.1,11,11.2,17.1h-75V85.4z M376.4,68.3V51.7c16.3,1.5,31.9,7.2,45.3,16.6H376.4z M376.4,136.6v-17.1
	h81.7c1.6,5.6,2.7,11.3,3.2,17.1H376.4z M359.3,51.7v84.9h-84.9C278.6,91.5,314.3,55.8,359.3,51.7z M314.1,222h107.7
	C389.5,244.7,346.4,244.7,314.1,222z"/>
<path class="st0" d="M367.9,0c-80.2,0-145.1,65-145.1,145.1c0,80.2,65,145.1,145.1,145.1c16.8-0.9,33.4-3.6,49.6-7.9l48.1,32
	c3.9,2.6,9.2,1.6,11.8-2.4c0.9-1.4,1.4-3.1,1.4-4.7v-68.9c51.6-61.2,43.8-152.7-17.4-204.3C435.3,12.1,402.1,0,367.9,0z
	 M463.9,229.7c-1.4,1.6-2.1,3.6-2.1,5.6v56.1l-37.9-25.3c-1.4-0.9-3.1-1.4-4.7-1.5c-0.7,0-1.5,0.1-2.2,0.3c-16,4.3-32.5,7.1-49,8.3
	c-70.9,0.2-128.5-57.2-128.7-128.1c-0.3-70.9,57-128.5,127.9-128.7s128.5,57.2,128.7,128.1C496,175.8,484.6,206.1,463.9,229.7z"/>
<path class="st0" d="M325.2,68.3h17.1v17.1h-17.1V68.3z"/>
<path class="st0" d="M325.2,102.4h17.1v17.1h-17.1V102.4z"/>
<path class="st0" d="M291,102.4h17.1v17.1H291V102.4z"/>
<path class="st0" d="M100.6,152l-14.2-9.5c-3.3,4.9-6.4,10-9.2,15.2l15,8.2C94.8,161.2,97.7,156.5,100.6,152z"/>
<path class="st0" d="M203.7,76.1l-4.9-16.4c-5.7,1.7-11.4,3.6-16.8,5.8l6.2,15.9C193.2,79.4,198.4,77.6,203.7,76.1z"/>
<path class="st0" d="M145.5,104.9l-10.1-13.7c-4.7,3.5-9.4,7.3-13.9,11.2l11.3,12.8C136.9,111.6,141.2,108.1,145.5,104.9z"/>
<path class="st0" d="M414.4,358.5l14.3,9.3c3.2-5,6.3-10.2,9-15.4l-15.1-8C420.2,349.2,417.4,353.9,414.4,358.5z"/>
<path class="st0" d="M312.4,435.7l5,16.3c5.7-1.7,11.3-3.8,16.8-6l-6.4-15.8C322.7,432.2,317.6,434.1,312.4,435.7z"/>
<path class="st0" d="M370.2,406.1l10.3,13.6c4.7-3.6,9.4-7.4,13.7-11.4l-11.5-12.7C378.8,399.3,374.5,402.8,370.2,406.1z"/>
</svg>
